<?xml version="1.0" standalone="no"?>
<!DOCTYPE svg PUBLIC "-//W3C//DTD SVG 20010904//EN"
 "http://www.w3.org/TR/2001/REC-SVG-20010904/DTD/svg10.dtd">
<svg version="1.0" xmlns="http://www.w3.org/2000/svg"
 width="700.000000pt" height="700.000000pt" viewBox="0 0 700.000000 700.000000"
 preserveAspectRatio="xMidYMid meet">
<metadata>
Created by potrace 1.11, written by Peter Selinger 2001-2013
</metadata>
<g transform="translate(0.000000,700.000000) scale(0.100000,-0.100000)"
fill="#000000" stroke="none">
<path d="M3429 6990 c-229 -27 -429 -184 -508 -399 l-22 -62 -70 65 c-110 105
-226 154 -380 163 -187 11 -338 -46 -469 -176 -124 -124 -182 -260 -183 -429
-1 -106 8 -100 -95 -57 -158 66 -339 58 -502 -23 -107 -52 -224 -169 -274
-274 -50 -105 -69 -200 -63 -313 3 -49 13 -110 21 -134 25 -70 24 -71 -52 -71
-243 0 -461 -159 -558 -407 -24 -61 -27 -82 -28 -198 -1 -103 3 -141 18 -185
40 -115 113 -232 176 -278 34 -26 33 -37 -7 -46 -41 -10 -142 -64 -188 -100
-153 -120 -237 -292 -238 -486 0 -160 51 -298 154 -413 77 -87 220 -171 324
-192 86 -17 82 -13 39 -42 -182 -122 -284 -310 -284 -523 0 -169 58 -309 179
-430 124 -124 260 -182 429 -183 106 -1 100 8 57 -95 -66 -158 -58 -339 23
-502 52 -107 169 -224 274 -274 105 -50 200 -69 313 -63 50 3 110 13 134 21
70 25 71 24 71 -52 0 -262 196 -506 460 -573 160 -41 327 -17 472 68 70 40
172 140 203 196 24 45 35 47 35 8 0 -37 34 -143 63 -198 40 -75 129 -173 204
-223 163 -109 362 -133 554 -66 166 58 307 197 368 365 l22 62 70 -65 c110
-105 226 -154 380 -163 187 -11 338 46 469 176 124 124 182 260 183 429 1 106
-8 100 95 57 158 -66 339 -58 502 23 105 51 223 169 273 272 83 173 88 362 12
527 -14 31 -25 59 -25 62 0 4 42 8 93 8 56 0 116 7 152 18 200 58 364 215 431
415 27 78 27 282 0 360 -34 99 -75 169 -142 239 l-65 70 63 23 c238 86 399
315 400 568 1 271 -154 499 -401 589 l-62 22 65 70 c67 70 108 140 142 239 27
78 27 282 0 360 -34 101 -79 173 -156 251 -122 123 -259 181 -428 182 -106 1
-100 -8 -57 95 66 158 58 339 -23 502 -52 107 -169 224 -274 274 -105 50 -200
69 -313 63 -49 -3 -110 -13 -134 -21 -70 -25 -71 -24 -71 52 0 262 -196 506
-460 573 -160 41 -327 17 -472 -68 -70 -40 -172 -140 -203 -196 -23 -44 -35
-47 -35 -9 0 39 -27 127 -57 187 -53 105 -168 221 -273 275 -96 49 -236 73
-351 60z m466 -1469 c82 -17 205 -60 271 -94 25 -13 20 -15 -86 -31 -162 -25
-237 -50 -282 -96 -23 -23 -38 -47 -38 -62 0 -27 38 -67 87 -92 59 -30 204
-65 327 -81 289 -35 473 -130 547 -280 30 -62 33 -162 5 -213 -37 -70 -133
-142 -255 -189 -23 -9 -19 -13 71 -66 256 -151 312 -288 173 -430 -99 -101
-301 -174 -550 -197 -234 -22 -549 32 -739 127 l-48 25 -92 -26 c-265 -74
-468 -73 -696 4 -277 93 -431 291 -366 472 47 131 248 275 454 325 l70 16 -36
29 c-100 79 -138 186 -96 273 19 42 104 122 164 158 99 58 242 97 416 112 69
7 70 7 66 34 -8 58 109 191 216 245 107 54 266 68 417 37z m879 -1957 c9 -8
16 -20 16 -26 0 -6 -24 -86 -54 -178 -77 -235 -201 -656 -291 -985 -42 -154
-87 -298 -98 -320 -26 -47 -73 -81 -141 -100 -89 -25 -370 -39 -781 -39 -607
-1 -704 17 -759 142 -50 116 -423 1471 -412 1498 9 24 55 16 142 -25 l84 -40
51 27 c99 51 213 39 318 -33 l48 -33 54 26 c39 20 69 27 110 27 56 0 58 -1
176 -75 20 -13 25 -12 45 7 37 33 86 54 142 60 41 4 65 0 119 -22 l67 -27 30
26 c17 14 47 30 68 36 55 15 165 12 217 -5 44 -15 46 -15 91 11 64 38 174 45
257 17 l57 -20 53 26 c72 36 179 36 252 0 l50 -24 29 33 c32 36 38 38 60 16z"/>
<path d="M3388 5183 c7 -3 16 -2 19 1 4 3 -2 6 -13 5 -11 0 -14 -3 -6 -6z"/>
<path d="M3277 3929 c6 -8 26 -23 45 -33 29 -17 31 -18 19 -2 -8 9 -28 24 -45
33 -24 12 -28 13 -19 2z"/>
</g>
</svg>
